<?xml version="1.0" standalone="no"?><!DOCTYPE svg PUBLIC "-//W3C//DTD SVG 1.1//EN" "http://www.w3.org/Graphics/SVG/1.1/DTD/svg11.dtd"><svg t="1666886682209" class="icon" viewBox="0 0 1024 1024" version="1.1" xmlns="http://www.w3.org/2000/svg" p-id="919" xmlns:xlink="http://www.w3.org/1999/xlink" width="200" height="200"><path d="M512 512m-405.333333 0a405.333333 405.333333 0 1 0 810.666666 0 405.333333 405.333333 0 1 0-810.666666 0Z" fill="#4CAF50" p-id="920"></path><path d="M640 426.666667c47.061333 0 85.333333 38.272 85.333333 85.333333s-38.272 85.333333-85.333333 85.333333-85.333333-38.272-85.333333-85.333333 38.272-85.333333 85.333333-85.333333m0-85.333334a170.666667 170.666667 0 1 0 0 341.333334 170.666667 170.666667 0 0 0 0-341.333334z" fill="#FFFFFF" p-id="921"></path><path d="M384 426.666667c47.061333 0 85.333333 38.272 85.333333 85.333333s-38.272 85.333333-85.333333 85.333333-85.333333-38.272-85.333333-85.333333 38.272-85.333333 85.333333-85.333333m0-85.333334a170.666667 170.666667 0 1 0 0 341.333334 170.666667 170.666667 0 0 0 0-341.333334z" fill="#FFFFFF" p-id="922"></path></svg>